<svg width="130" height="130" viewBox="0 0 130 130" fill="none" xmlns="http://www.w3.org/2000/svg">
<circle cx="65" cy="65" r="65" fill="black"/>
<path d="M71.9569 28.8406L94.7022 67.331C97.6566 72.3306 94.0526 78.6466 88.2453 78.6466H42.7547C36.9474 78.6466 33.3434 72.3306 36.2978 67.331L59.0431 28.8406C61.9461 23.928 69.0539 23.928 71.9569 28.8406Z" stroke="#E01818" stroke-width="5"/>
<line x1="48.7061" y1="77.2897" x2="65.0904" y2="47.2619" stroke="#E01818" stroke-width="5"/>
<path d="M39.8008 98.5517H38.5528V93.6877C38.5528 92.8557 38.3315 92.2451 37.8888 91.8557C37.4462 91.4664 36.8888 91.2717 36.2168 91.2717C35.2568 91.3784 34.5582 91.7197 34.1208 92.2957C33.6835 92.8717 33.4648 93.5757 33.4648 94.4077V98.5517H32.2008V93.6877C32.2008 92.9837 32.0088 92.4051 31.6248 91.9517C31.2408 91.4984 30.6542 91.2717 29.8648 91.2717C28.9048 91.3784 28.2035 91.7197 27.7608 92.2957C27.3182 92.8717 27.0968 93.5757 27.0968 94.4077V98.5517H25.8648V90.1357H27.0968V92.0397C27.6942 90.7384 28.7662 90.0877 30.3128 90.0877C31.8915 90.0877 32.8995 90.8184 33.3368 92.2797C33.9022 90.8184 35.0115 90.0877 36.6648 90.0877C37.7102 90.0877 38.4942 90.3971 39.0168 91.0157C39.5395 91.6344 39.8008 92.4184 39.8008 93.3677V98.5517ZM54.8688 98.6477C54.1808 98.6477 53.6182 98.5251 53.1808 98.2797C52.7275 98.0131 52.3968 97.6771 52.1888 97.2717C51.9808 96.8664 51.8768 96.4397 51.8768 95.9917C51.8768 95.2771 52.1355 94.6824 52.6528 94.2077C53.1702 93.7331 53.9942 93.4691 55.1248 93.4157H57.6208C57.6208 92.7757 57.4582 92.3144 57.1328 92.0317C56.8128 91.7491 56.3302 91.6077 55.6848 91.6077C54.8955 91.6077 54.0475 91.8744 53.1408 92.4077L52.3888 90.9677C53.5728 90.2637 54.8262 89.9117 56.1488 89.9117C56.9755 89.9117 57.6475 90.0397 58.1648 90.2957C58.6875 90.5517 59.0688 90.9117 59.3088 91.3757C59.5488 91.8397 59.6688 92.3651 59.6688 92.9517L59.6848 98.5517H57.6368V97.5117C57.0075 98.2691 56.0848 98.6477 54.8688 98.6477ZM55.3648 97.0477C55.8875 97.0477 56.3595 96.9304 56.7808 96.6957C57.2022 96.4611 57.4822 96.0877 57.6208 95.5757V94.8077H55.4608C54.3835 94.8077 53.8448 95.1491 53.8448 95.8317C53.8448 96.1251 53.9142 96.3624 54.0528 96.5437C54.1915 96.7197 54.3755 96.8477 54.6048 96.9277C54.8342 97.0077 55.0875 97.0477 55.3648 97.0477ZM75.0872 98.6317C74.0419 98.6317 73.2632 98.3197 72.7512 97.6957C72.2392 97.0717 71.9832 96.2904 71.9832 95.3517V89.9917H74.0792V94.7437C74.0792 95.2984 74.2285 95.7571 74.5272 96.1197C74.8259 96.4824 75.2899 96.6637 75.9192 96.6637C76.6659 96.5784 77.2099 96.3091 77.5512 95.8557C77.8925 95.4024 78.0632 94.8557 78.0632 94.2157V89.9917H80.1592V98.5517H78.0632V96.9677C77.4659 98.0771 76.4739 98.6317 75.0872 98.6317ZM95.3601 98.5997C94.7041 98.5997 94.1654 98.4824 93.7441 98.2477C93.3281 98.0131 93.0161 97.7011 92.8081 97.3117C92.6001 96.9224 92.4961 96.5037 92.4961 96.0557C92.4961 95.3837 92.7494 94.8237 93.2561 94.3757C93.7627 93.9277 94.5601 93.6824 95.6481 93.6397H98.4161V93.1117C98.4161 92.5251 98.2374 92.0477 97.8801 91.6797C97.5227 91.3117 96.9494 91.1277 96.1601 91.1277C95.2214 91.1277 94.3307 91.4531 93.4881 92.1037L92.9601 91.2237C94.0481 90.4664 95.1947 90.0877 96.4001 90.0877C97.5414 90.0877 98.3681 90.3544 98.8801 90.8877C99.3921 91.4211 99.6481 92.1197 99.6481 92.9837L99.6641 98.5517H98.4481V97.2397C97.7334 98.1464 96.7041 98.5997 95.3601 98.5997ZM95.6001 97.5597C96.2614 97.5597 96.8454 97.4077 97.3521 97.1037C97.8587 96.7997 98.2187 96.3171 98.4321 95.6557V94.6317H95.8081C94.4001 94.6317 93.6854 95.0904 93.6641 96.0077C93.6641 96.4344 93.8267 96.7997 94.1521 97.1037C94.4774 97.4077 94.9601 97.5597 95.6001 97.5597Z" fill="white"/>
</svg>
